<svg width="150" height="125" viewBox="0 0 150 125" fill="none" xmlns="http://www.w3.org/2000/svg">
<g clip-path="url(#clip0_195_35)">
<path d="M46.1549 33.747C46.5187 34.1625 47.1505 34.2044 47.566 33.8406C47.9815 33.4768 48.0234 32.845 47.6596 32.4295L46.1549 33.747ZM21.3709 2.40498C21.0071 1.98946 20.3753 1.94755 19.9598 2.31136C19.5443 2.67518 19.5024 3.30696 19.8662 3.72247L21.3709 2.40498ZM21.134 124.387V125.387H21.5996L21.8993 125.031L21.134 124.387ZM125.773 0L126.538 0.643747C126.789 0.346178 126.844 -0.0695226 126.68 -0.42205C126.516 -0.774578 126.162 -1 125.773 -1V0ZM104.639 0V-1H104.174L103.874 -0.643747L104.639 0ZM47.4227 68.0147L46.7173 67.3058L46.686 67.3371L46.6574 67.371L47.4227 68.0147ZM0 124.387L-0.765238 123.744C-1.01556 124.041 -1.07069 124.457 -0.906572 124.809C-0.742455 125.162 -0.388858 125.387 0 125.387L0 124.387ZM148.191 0.639915C148.545 0.215514 148.487 -0.41503 148.063 -0.768446C147.638 -1.12186 147.008 -1.06432 146.654 -0.639915L148.191 0.639915ZM96.9072 60.6618L96.1388 60.0219L95.6083 60.6589L96.1359 61.2982L96.9072 60.6618ZM149.229 125.636C149.58 126.062 150.211 126.123 150.636 125.771C151.062 125.42 151.123 124.789 150.771 124.364L149.229 125.636ZM99.2238 84.5338C98.8716 84.1084 98.2412 84.0491 97.8158 84.4014C97.3904 84.7536 97.3312 85.384 97.6834 85.8094L99.2238 84.5338ZM130.928 124.387V125.387C131.315 125.387 131.668 125.163 131.833 124.813C131.998 124.462 131.945 124.048 131.698 123.749L130.928 124.387ZM102.062 124.387L101.304 125.039L101.603 125.387H102.062V124.387ZM79.624 96.7743C79.2638 96.3556 78.6324 96.3082 78.2138 96.6684C77.7951 97.0286 77.7477 97.66 78.1079 98.0787L79.624 96.7743ZM38.41 124.356C38.0545 124.779 38.1089 125.41 38.5315 125.765C38.9541 126.121 39.585 126.066 39.9405 125.644L38.41 124.356ZM64.6828 96.232C65.0383 95.8094 64.9839 95.1785 64.5613 94.823C64.1386 94.4675 63.5078 94.5219 63.1523 94.9445L64.6828 96.232ZM27.5796 37.4016C27.9314 37.8274 28.5617 37.8874 28.9875 37.5356C29.4132 37.1838 29.4732 36.5535 29.1214 36.1278L27.5796 37.4016ZM0 2.45098V1.45098C-0.387256 1.45098 -0.739698 1.67457 -0.904693 2.02492C-1.06969 2.37526 -1.01757 2.78938 -0.770913 3.08792L0 2.45098ZM44.8454 2.45098L45.6013 1.79635C45.4114 1.57701 45.1355 1.45098 44.8454 1.45098V2.45098ZM62.1307 23.9389C62.4922 24.3564 63.1237 24.4018 63.5412 24.0403C63.9587 23.6787 64.0041 23.0472 63.6425 22.6297L62.1307 23.9389ZM88.4369 75.4294C88.8094 75.8371 89.4419 75.8657 89.8497 75.4933C90.2575 75.1208 90.2861 74.4883 89.9136 74.0805L88.4369 75.4294ZM64.0232 23.1133C63.5903 22.7703 62.9614 22.8431 62.6183 23.276C62.2753 23.7088 62.3481 24.3378 62.781 24.6808L64.0232 23.1133ZM83.1052 27.1238C83.5337 26.7754 83.5985 26.1455 83.25 25.7171C82.9015 25.2886 82.2717 25.2238 81.8432 25.5722L83.1052 27.1238ZM47.1025 31.7721C46.714 31.3795 46.0809 31.3762 45.6883 31.7647C45.2958 32.1532 45.2925 32.7864 45.681 33.1789L47.1025 31.7721ZM82.7408 27.584C83.085 27.1521 83.0139 26.523 82.582 26.1788C82.1501 25.8345 81.5209 25.9056 81.1767 26.3375L82.7408 27.584ZM63.634 94.3742C63.3019 94.8154 63.3904 95.4424 63.8316 95.7745C64.2729 96.1066 64.8998 96.0182 65.232 95.5769L63.634 94.3742ZM99.4845 86.3971L98.8418 87.1631L100.234 85.735L99.4845 86.3971ZM89.4093 73.4801C89.0437 73.0662 88.4117 73.027 87.9978 73.3927C87.5839 73.7583 87.5447 74.3902 87.9103 74.8042L89.4093 73.4801ZM64.1832 93.719C63.8277 94.1416 63.8821 94.7724 64.3047 95.1279C64.7273 95.4835 65.3582 95.4291 65.7137 95.0064L64.1832 93.719ZM78.6162 98.683C78.9717 99.1056 79.6026 99.16 80.0252 98.8045C80.4478 98.449 80.5022 97.8182 80.1467 97.3955L78.6162 98.683ZM46.9072 33.0882L47.6596 32.4295L21.3709 2.40498L20.6186 3.06373L19.8662 3.72247L46.1549 33.747L46.9072 33.0882ZM21.134 124.387L21.8993 125.031L126.538 0.643747L125.773 0L125.008 -0.643747L20.3688 123.744L21.134 124.387ZM125.773 0V-1H104.639V0V1H125.773V0ZM104.639 0L103.874 -0.643747L80.6781 26.9298L81.4433 27.5735L82.2085 28.2173L105.404 0.643747L104.639 0ZM47.4227 68.0147L46.6574 67.371L-0.765238 123.744L0 124.387L0.765238 125.031L48.1879 68.6585L47.4227 68.0147ZM0 124.387V125.387H21.134V124.387V123.387H0V124.387ZM147.423 0L146.654 -0.639915L96.1388 60.0219L96.9072 60.6618L97.6757 61.3017L148.191 0.639915L147.423 0ZM96.9072 60.6618L96.1359 61.2982L149.229 125.636L150 125L150.771 124.364L97.6785 60.0253L96.9072 60.6618ZM98.4536 85.1716L97.6834 85.8094L130.158 125.025L130.928 124.387L131.698 123.749L99.2238 84.5338L98.4536 85.1716ZM130.928 124.387V123.387H102.062V124.387V125.387H130.928V124.387ZM102.062 124.387L102.82 123.735L79.624 96.7743L78.866 97.4265L78.1079 98.0787L101.304 125.039L102.062 124.387ZM39.1753 125L39.9405 125.644L64.6828 96.232L63.9175 95.5882L63.1523 94.9445L38.41 124.356L39.1753 125ZM28.3505 36.7647L29.1214 36.1278L0.770913 1.81404L0 2.45098L-0.770913 3.08792L27.5796 37.4016L28.3505 36.7647ZM0 2.45098V3.45098H44.8454V2.45098V1.45098H0V2.45098ZM44.8454 2.45098L44.0894 3.10561L62.1307 23.9389L62.8866 23.2843L63.6425 22.6297L45.6013 1.79635L44.8454 2.45098ZM47.4227 68.0147L48.128 68.7236C54.2936 62.5887 60.2666 59.9296 66.621 60.8362C73.0526 61.7538 80.1471 66.3542 88.4369 75.4294L89.1753 74.7549L89.9136 74.0805C81.5281 64.9007 74.0351 59.8737 66.9035 58.8562C59.6947 57.8278 53.1291 60.926 46.7173 67.3058L47.4227 68.0147ZM63.4021 23.8971L62.781 24.6808C63.5355 25.2788 64.2462 25.8887 64.94 26.4914C65.6284 27.0895 66.309 27.6883 66.9784 28.2399C68.3129 29.3397 69.694 30.3309 71.2469 30.889C74.5027 32.0591 78.0956 31.1984 83.1052 27.1238L82.4742 26.348L81.8432 25.5722C77.0591 29.4634 74.2087 29.8282 71.9233 29.0068C70.7055 28.5692 69.5415 27.7605 68.2503 26.6965C67.6069 26.1663 66.9546 25.5923 66.2516 24.9816C65.5541 24.3756 64.815 23.7409 64.0232 23.1133L63.4021 23.8971ZM46.3918 32.4755L45.681 33.1789C51.0946 38.6489 58.0146 40.2534 64.7487 38.9726C71.4561 37.6969 77.9722 33.5676 82.7408 27.584L81.9588 26.9608L81.1767 26.3375C76.667 31.9962 70.5542 35.8325 64.375 37.0078C58.2225 38.178 51.9982 36.7188 47.1025 31.7721L46.3918 32.4755ZM64.433 94.9755L65.232 95.5769C73.8073 84.1839 82.237 82.228 88.4152 82.948C91.5464 83.3129 94.1648 84.3729 96.0044 85.3469C96.9226 85.833 97.6414 86.2948 98.1268 86.632C98.3693 86.8004 98.5531 86.9374 98.6738 87.0302C98.7341 87.0766 98.7786 87.112 98.8068 87.1347C98.8209 87.146 98.8309 87.1542 98.8368 87.159C98.8397 87.1614 98.8416 87.163 98.8424 87.1636C98.8428 87.164 98.843 87.1641 98.8429 87.164C98.8428 87.164 98.8425 87.1638 98.8425 87.1637C98.8422 87.1634 98.8418 87.1631 99.4845 86.3971C100.127 85.631 100.127 85.6306 100.126 85.63C100.126 85.6298 100.125 85.6292 100.125 85.6287C100.123 85.6278 100.122 85.6266 100.12 85.6251C100.117 85.6223 100.112 85.6186 100.107 85.614C100.096 85.6048 100.08 85.5923 100.061 85.5765C100.021 85.545 99.9654 85.5006 99.8931 85.4449C99.7485 85.3337 99.5386 85.1775 99.2677 84.9893C98.7262 84.6132 97.9389 84.1081 96.9402 83.5793C94.9461 82.5236 92.0877 81.3624 88.6467 80.9614C81.6805 80.1496 72.5844 82.4829 63.634 94.3742L64.433 94.9755ZM99.4845 86.3971L100.234 85.735L89.4093 73.4801L88.6598 74.1422L87.9103 74.8042L98.7351 87.0591L99.4845 86.3971ZM64.9485 94.3627L65.7137 95.0064C66.6355 93.9107 67.5948 93.3144 68.5488 93.0598C69.5062 92.8043 70.5433 92.8705 71.6538 93.2428C73.9109 93.9996 76.3436 95.9814 78.6162 98.683L79.3814 98.0393L80.1467 97.3955C77.7802 94.5823 75.0582 92.2749 72.2896 91.3466C70.8871 90.8763 69.4435 90.751 68.0331 91.1274C66.6191 91.5047 65.3233 92.3637 64.1832 93.719L64.9485 94.3627Z" fill="white"/>
</g>
<defs>
<clipPath id="clip0_195_35">
<rect width="150" height="125" fill="white"/>
</clipPath>
</defs>
</svg>
