<svg width="150" height="125" viewBox="0 0 150 125" fill="none" xmlns="http://www.w3.org/2000/svg">
<g clip-path="url(#clip0_195_35)">
<path d="M45.0263 34.7351C45.9359 35.7739 47.5153 35.8787 48.5541 34.9691C49.5929 34.0596 49.6977 32.4802 48.7881 31.4414L45.0263 34.7351ZM22.4995 1.41685C21.5899 0.378057 20.0105 0.273276 18.9717 1.18282C17.9329 2.09236 17.8281 3.6718 18.7377 4.7106L22.4995 1.41685ZM21.134 124.387V126.887H22.2979L23.0471 125.997L21.134 124.387ZM125.773 0L127.686 1.60937C128.312 0.865445 128.45 -0.173807 128.04 -1.05513C127.629 -1.93645 126.745 -2.5 125.773 -2.5V0ZM104.639 0V-2.5H103.475L102.726 -1.60937L104.639 0ZM47.4227 68.0147L45.6593 66.2425L45.5809 66.3206L45.5096 66.4053L47.4227 68.0147ZM0 124.387L-1.9131 122.778C-2.53891 123.522 -2.67672 124.561 -2.26643 125.442C-1.85614 126.324 -0.972145 126.887 0 126.887L0 124.387ZM149.344 1.59979C150.227 0.538786 150.083 -1.03758 149.022 -1.92111C147.961 -2.80465 146.385 -2.66079 145.502 -1.59979L149.344 1.59979ZM96.9072 60.6618L94.9861 59.062L93.6599 60.6545L94.979 62.253L96.9072 60.6618ZM148.072 126.591C148.951 127.656 150.526 127.807 151.591 126.928C152.656 126.049 152.807 124.474 151.928 123.409L148.072 126.591ZM100.379 83.5771C99.4985 82.5136 97.9225 82.3654 96.8591 83.2461C95.7957 84.1267 95.6475 85.7026 96.5281 86.7661L100.379 83.5771ZM130.928 124.387V126.887C131.896 126.887 132.778 126.328 133.19 125.451C133.602 124.575 133.471 123.539 132.853 122.793L130.928 124.387ZM102.062 124.387L100.167 126.018L100.915 126.887H102.062V124.387ZM80.7611 95.796C79.8606 94.7493 78.2821 94.6309 77.2355 95.5313C76.1888 96.4318 76.0704 98.0103 76.9709 99.057L80.7611 95.796ZM37.2622 123.391C36.3733 124.447 36.5093 126.024 37.5659 126.913C38.6225 127.802 40.1995 127.666 41.0884 126.609L37.2622 123.391ZM65.8306 97.1976C66.7195 96.141 66.5835 94.564 65.5269 93.6751C64.4703 92.7863 62.8933 92.9223 62.0044 93.9789L65.8306 97.1976ZM26.4232 38.3571C27.3027 39.4215 28.8785 39.5714 29.9429 38.692C31.0073 37.8126 31.1572 36.2368 30.2778 35.1724L26.4232 38.3571ZM0 2.45098V-0.0490196C-0.968139 -0.0490196 -1.84924 0.509953 -2.26173 1.38582C-2.67422 2.26169 -2.54393 3.29698 -1.92728 4.04333L0 2.45098ZM44.8454 2.45098L46.7352 0.814396C46.2604 0.266044 45.5707 -0.0490196 44.8454 -0.0490196V2.45098ZM60.9967 24.9209C61.9006 25.9646 63.4794 26.078 64.5232 25.1742C65.5669 24.2703 65.6803 22.6915 64.7765 21.6477L60.9967 24.9209ZM87.3294 76.441C88.2606 77.4604 89.8419 77.532 90.8614 76.6008C91.8808 75.6695 91.9523 74.0883 91.0211 73.0688L87.3294 76.441ZM64.9548 21.9377C63.8727 21.0802 62.3003 21.2622 61.4427 22.3443C60.5852 23.4264 60.7672 24.9988 61.8493 25.8564L64.9548 21.9377ZM84.0517 28.2875C85.1228 27.4163 85.2849 25.8417 84.4137 24.7706C83.5425 23.6994 81.9679 23.5373 80.8968 24.4086L84.0517 28.2875ZM48.1687 30.7169C47.1974 29.7356 45.6145 29.7273 44.6332 30.6986C43.6518 31.6698 43.6436 33.2527 44.6149 34.2341L48.1687 30.7169ZM83.9138 28.5189C84.7744 27.4391 84.5966 25.8662 83.5169 25.0057C82.4371 24.1452 80.8642 24.3229 80.0037 25.4027L83.9138 28.5189ZM62.4356 93.4721C61.6052 94.5752 61.8264 96.1426 62.9296 96.973C64.0327 97.8033 65.6001 97.5821 66.4304 96.479L62.4356 93.4721ZM99.4845 86.3971L97.8776 88.3122L101.358 84.742L99.4845 86.3971ZM90.5335 72.4871C89.6195 71.4523 88.0396 71.3544 87.0048 72.2684C85.9699 73.1825 85.872 74.7624 86.7861 75.7972L90.5335 72.4871ZM63.0354 92.7533C62.1465 93.8099 62.2825 95.387 63.3391 96.2758C64.3957 97.1646 65.9727 97.0286 66.8616 95.972L63.0354 92.7533ZM77.4683 99.6486C78.3572 100.705 79.9342 100.841 80.9908 99.9524C82.0474 99.0636 82.1834 97.4865 81.2946 96.4299L77.4683 99.6486ZM46.9072 33.0882L48.7881 31.4414L22.4995 1.41685L20.6186 3.06373L18.7377 4.7106L45.0263 34.7351L46.9072 33.0882ZM21.134 124.387L23.0471 125.997L127.686 1.60937L125.773 0L123.86 -1.60937L19.2209 122.778L21.134 124.387ZM125.773 0V-2.5H104.639V0V2.5H125.773V0ZM104.639 0L102.726 -1.60937L79.5302 25.9642L81.4433 27.5735L83.3564 29.1829L106.552 1.60937L104.639 0ZM47.4227 68.0147L45.5096 66.4053L-1.9131 122.778L0 124.387L1.9131 125.997L49.3358 69.6241L47.4227 68.0147ZM0 124.387V126.887H21.134V124.387V121.887H0V124.387ZM147.423 0L145.502 -1.59979L94.9861 59.062L96.9072 60.6618L98.8283 62.2616L149.344 1.59979L147.423 0ZM96.9072 60.6618L94.979 62.253L148.072 126.591L150 125L151.928 123.409L98.8355 59.0706L96.9072 60.6618ZM98.4536 85.1716L96.5281 86.7661L129.002 125.982L130.928 124.387L132.853 122.793L100.379 83.5771L98.4536 85.1716ZM130.928 124.387V121.887H102.062V124.387V126.887H130.928V124.387ZM102.062 124.387L103.957 122.757L80.7611 95.796L78.866 97.4265L76.9709 99.057L100.167 126.018L102.062 124.387ZM39.1753 125L41.0884 126.609L65.8306 97.1976L63.9175 95.5882L62.0044 93.9789L37.2622 123.391L39.1753 125ZM28.3505 36.7647L30.2778 35.1724L1.92728 0.85863L0 2.45098L-1.92728 4.04333L26.4232 38.3571L28.3505 36.7647ZM0 2.45098V4.95098H44.8454V2.45098V-0.0490196H0V2.45098ZM44.8454 2.45098L42.9555 4.08756L60.9967 24.9209L62.8866 23.2843L64.7765 21.6477L46.7352 0.814396L44.8454 2.45098ZM47.4227 68.0147L49.186 69.7869C55.167 63.8357 60.6956 61.506 66.4091 62.3211C72.3157 63.1638 79.1113 67.4444 87.3294 76.441L89.1753 74.7549L91.0211 73.0688C82.5639 63.8105 74.7719 58.4636 67.1153 57.3713C59.2657 56.2514 52.2557 59.679 45.6593 66.2425L47.4227 68.0147ZM63.4021 23.8971L61.8493 25.8564C62.5759 26.4322 63.2653 27.0235 63.9562 27.6238C64.6338 28.2124 65.3355 28.8298 66.0245 29.3975C67.3915 30.5241 68.9353 31.6522 70.7395 32.3006C74.7232 33.7322 78.8729 32.4996 84.0517 28.2875L82.4742 26.348L80.8968 24.4086C76.2817 28.1621 73.9882 28.155 72.4306 27.5952C71.4641 27.2479 70.4629 26.5761 69.2043 25.5389C68.5804 25.0248 67.9492 24.4693 67.2354 23.8492C66.5349 23.2407 65.7746 22.5874 64.9548 21.9377L63.4021 23.8971ZM46.3918 32.4755L44.6149 34.2341C50.4168 40.0964 57.8587 41.8099 65.029 40.4462C72.1325 39.0951 78.951 34.7461 83.9138 28.5189L81.9588 26.9608L80.0037 25.4027C75.6882 30.8176 69.8778 34.4343 64.0947 35.5342C58.3784 36.6214 52.676 35.2712 48.1687 30.7169L46.3918 32.4755ZM64.433 94.9755L66.4304 96.479C74.7245 85.4597 82.6544 83.7868 88.2415 84.4379C91.1404 84.7757 93.5788 85.76 95.3025 86.6725C96.1603 87.1267 96.8278 87.556 97.2711 87.8639C97.4923 88.0176 97.6565 88.1401 97.7592 88.2192C97.8106 88.2587 97.8465 88.2873 97.8664 88.3033C97.8764 88.3113 97.8823 88.3162 97.8842 88.3177C97.8852 88.3185 97.8851 88.3184 97.884 88.3175C97.8834 88.3171 97.8826 88.3164 97.8816 88.3155C97.881 88.3151 97.88 88.3142 97.8798 88.314C97.8787 88.3131 97.8776 88.3122 99.4845 86.3971C101.092 84.4819 101.09 84.4809 101.089 84.4798C101.088 84.4793 101.087 84.4782 101.086 84.4773C101.084 84.4755 101.081 84.4735 101.079 84.4712C101.073 84.4668 101.067 84.4614 101.059 84.4552C101.044 84.4428 101.025 84.427 101.001 84.4079C100.954 84.3697 100.889 84.3185 100.808 84.256C100.645 84.131 100.416 83.9603 100.123 83.7574C99.5398 83.352 98.7012 82.8144 97.642 82.2536C95.532 81.1365 92.4936 79.8996 88.8203 79.4715C81.2632 78.5908 71.6673 81.2071 62.4356 93.4721L64.433 94.9755ZM99.4845 86.3971L101.358 84.742L90.5335 72.4871L88.6598 74.1422L86.7861 75.7972L97.6108 88.0521L99.4845 86.3971ZM64.9485 94.3627L66.8616 95.972C67.6196 95.071 68.3265 94.6716 68.9355 94.5091C69.5532 94.3442 70.2856 94.3661 71.1769 94.665C73.0504 95.2932 75.2661 97.0307 77.4683 99.6486L79.3814 98.0393L81.2946 96.4299C78.8576 93.533 75.9186 90.9813 72.7664 89.9244C71.1449 89.3807 69.3966 89.2111 67.6463 89.6781C65.8874 90.1475 64.3392 91.2034 63.0354 92.7533L64.9485 94.3627Z" fill="white"/>
</g>
<defs>
<clipPath id="clip0_195_35">
<rect width="150" height="125" fill="white"/>
</clipPath>
</defs>
</svg>
